<svg width="20" height="20" fill="none" xmlns="http://www.w3.org/2000/svg"><path fill-rule="evenodd" clip-rule="evenodd" d="M10-.001c-2.716 0-3.056.012-4.123.06C4.812.11 4.086.277 3.45.524a4.897 4.897 0 00-1.772 1.153A4.91 4.91 0 00.524 3.45C.276 4.085.107 4.812.059 5.876.012 6.943 0 7.284 0 10c0 2.716.012 3.056.06 4.122.05 1.065.218 1.792.465 2.427a4.9 4.9 0 001.153 1.772 4.896 4.896 0 001.771 1.154c.637.247 1.364.416 2.428.465 1.067.048 1.407.06 4.123.06s3.056-.012 4.123-.06c1.065-.049 1.792-.218 2.428-.465a4.893 4.893 0 001.77-1.154 4.908 4.908 0 001.155-1.771c.246-.636.415-1.363.465-2.428.048-1.066.06-1.406.06-4.122s-.012-3.057-.06-4.124c-.05-1.065-.22-1.791-.465-2.427a4.907 4.907 0 00-1.154-1.772A4.888 4.888 0 0016.55.524C15.912.277 15.185.108 14.12.06 13.054.011 12.714 0 9.997 0h.004zm-.897 1.802h.898c2.67 0 2.986.01 4.04.058.976.044 1.505.207 1.857.344.467.181.8.398 1.15.748.35.35.566.683.748 1.15.137.352.3.881.344 1.857.048 1.054.059 1.37.059 4.04 0 2.668-.01 2.985-.059 4.04-.044.974-.207 1.503-.344 1.856a3.093 3.093 0 01-.748 1.148c-.35.35-.683.567-1.15.748-.352.138-.881.3-1.856.345-1.055.048-1.371.058-4.041.058-2.67 0-2.987-.01-4.042-.058-.975-.045-1.504-.208-1.857-.345a3.097 3.097 0 01-1.15-.748 3.1 3.1 0 01-.748-1.15c-.137-.351-.3-.88-.344-1.856-.048-1.054-.058-1.37-.058-4.041 0-2.67.01-2.986.058-4.04.044-.975.207-1.504.344-1.857a3.1 3.1 0 01.748-1.15 3.1 3.1 0 011.15-.748c.353-.138.882-.3 1.857-.345.923-.042 1.28-.054 3.144-.056V1.8zm6.236 1.66a1.2 1.2 0 100 2.401 1.2 1.2 0 000-2.4zM4.865 10a5.136 5.136 0 1110.272 0 5.136 5.136 0 01-10.272 0zm8.469 0a3.334 3.334 0 10-6.667 0 3.334 3.334 0 006.667 0z" fill="#C29441"/></svg>