<svg width="22" height="22" fill="none" xmlns="http://www.w3.org/2000/svg"><g clip-path="url(#clip0)" fill="#000"><path d="M21.226 12.733c.656-5.524-.316-9.012-2.069-10.59h.001C16.33-.553 6.776-.952 3.392 2.262 1.872 3.835 1.337 6.143 1.278 9c-.059 2.857-.128 8.21 4.86 9.662h.004l-.005 2.217s-.034.898.54 1.079c.656.213.953-.204 2.995-2.643 3.413.296 6.035-.382 6.333-.481.69-.231 4.59-.747 5.22-6.1zm-11.218 5.021s-2.16 2.694-2.832 3.394c-.22.227-.461.206-.458-.245 0-.296.017-3.681.017-3.681-4.229-1.212-3.98-5.77-3.934-8.154.046-2.385.483-4.339 1.77-5.654C7.54.63 15.915 1.252 18.049 3.258c2.61 2.313 1.68 8.847 1.686 9.07-.536 4.467-3.697 4.75-4.278 4.944-.248.082-2.554.676-5.449.482z"/><path d="M11.204 3.939c-.353 0-.353.55 0 .554 2.738.022 4.993 1.93 5.017 5.43 0 .37.541.366.537-.004h-.001c-.03-3.772-2.492-5.959-5.553-5.98z"/><path d="M14.805 9.344c-.008.364.532.382.537.012.044-2.08-1.238-3.793-3.648-3.973-.353-.026-.39.529-.038.554 2.09.159 3.191 1.585 3.15 3.407zm-.578 2.366c-.453-.263-.914-.1-1.104.158l-.399.516c-.203.262-.581.227-.581.227C9.38 11.881 8.64 8.99 8.64 8.99s-.034-.392.22-.602l.498-.412c.25-.198.407-.675.153-1.143-.678-1.226-1.134-1.648-1.366-1.973-.244-.305-.61-.374-.992-.168h-.008c-.793.464-1.66 1.332-1.383 2.226.474.942 1.345 3.946 4.12 6.216 1.305 1.073 3.369 2.173 4.245 2.427l.009.013c.863.288 1.703-.614 2.151-1.43v-.007c.199-.395.133-.77-.158-1.014-.515-.502-1.292-1.057-1.903-1.413z"/><path d="M12.072 7.429c.88.051 1.308.511 1.353 1.456.017.37.553.344.537-.025-.059-1.234-.703-1.922-1.861-1.986-.353-.021-.386.534-.03.555z"/></g><defs><clipPath id="clip0"><path fill="#fff" d="M0 0h22v22H0z"/></clipPath></defs></svg>