<svg width="24" height="24" fill="none" xmlns="http://www.w3.org/2000/svg"><path fill-rule="evenodd" clip-rule="evenodd" d="M12.042 21.924c5.49-.003 9.956-4.47 9.958-9.959a9.898 9.898 0 00-2.914-7.044A9.894 9.894 0 0012.042 2c-5.49 0-9.956 4.467-9.959 9.958a9.94 9.94 0 001.33 4.978L2 22.096l5.279-1.385a9.95 9.95 0 004.759 1.213h.004zm-4.518-3.015l-3.133.821.836-3.054-.197-.313a8.257 8.257 0 01-1.265-4.405c.002-4.563 3.715-8.276 8.28-8.276a8.22 8.22 0 015.852 2.427 8.227 8.227 0 012.422 5.856c-.002 4.564-3.715 8.277-8.277 8.277h-.003a8.26 8.26 0 01-4.213-1.154l-.302-.18zm9.194-4.8c.174.084.29.14.34.224.063.104.063.602-.144 1.184-.208.58-1.202 1.111-1.68 1.183-.429.064-.971.09-1.567-.099a14.305 14.305 0 01-1.419-.524c-2.332-1.007-3.909-3.268-4.207-3.695l-.043-.062-.002-.003c-.132-.175-1.014-1.353-1.014-2.571 0-1.146.563-1.747.822-2.023l.049-.053a.914.914 0 01.663-.311 9.884 9.884 0 01.533.01c.145-.002.326-.003.504.426l.275.667c.214.521.45 1.097.492 1.18.062.125.104.27.02.436l-.034.071a1.41 1.41 0 01-.214.344 6.878 6.878 0 00-.127.153 4.14 4.14 0 01-.246.283c-.125.124-.254.259-.11.508.146.25.645 1.064 1.385 1.724a6.427 6.427 0 001.836 1.16c.069.03.124.054.165.075.249.124.394.103.539-.063.145-.166.622-.726.788-.975.166-.25.332-.208.56-.125.228.083 1.451.685 1.7.81l.136.066z" fill="#000"/></svg>