<svg width="22" height="22" viewBox="0 0 22 22" fill="none" xmlns="http://www.w3.org/2000/svg">
<g clip-path="url(#clip0)">
<path d="M21.2255 12.7335C21.8818 7.20873 20.9102 3.72081 19.1575 2.14322L19.1584 2.14231C16.3296 -0.551779 6.77607 -0.950529 3.39174 2.26331C1.87191 3.83539 1.33657 6.14265 1.27791 8.99899C1.21924 11.8562 1.14957 17.2087 6.13716 18.6607H6.14174L6.13716 20.8781C6.13716 20.8781 6.10324 21.7764 6.67707 21.957C7.33341 22.1697 7.63041 21.7526 9.67182 19.3143C13.0855 19.6103 15.7072 18.932 16.0051 18.833C16.6944 18.602 20.5948 18.0859 21.2255 12.7335ZM10.0082 17.7541C10.0082 17.7541 7.84766 20.4482 7.17574 21.1476C6.95574 21.3749 6.71466 21.3538 6.71832 20.9028C6.71832 20.6068 6.73482 17.2215 6.73482 17.2215C2.50624 16.0097 2.75557 11.452 2.80141 9.06774C2.84724 6.68257 3.28357 4.72915 4.57057 3.41373C7.53966 0.629806 15.9152 1.25222 18.0492 3.25789C20.6581 5.57065 19.7295 12.1047 19.735 12.3274C19.1987 16.7952 16.0381 17.0785 15.4569 17.2719C15.2085 17.3544 12.9031 17.9475 10.0082 17.7541Z" fill="black"/>
<path d="M11.2037 3.9389C10.8507 3.9389 10.8507 4.4889 11.2037 4.49349C13.9417 4.51457 16.1967 6.42307 16.2215 9.92382C16.2215 10.2932 16.7623 10.2887 16.7577 9.91924H16.7568C16.7275 6.14715 14.2653 3.95999 11.2037 3.9389Z" fill="black"/>
<path d="M14.8052 9.34359C14.797 9.70843 15.3369 9.72584 15.3415 9.35643C15.3864 7.2765 14.1039 5.56325 11.694 5.38267C11.3411 5.357 11.3044 5.91159 11.6564 5.93725C13.7464 6.09584 14.8474 7.52217 14.8052 9.34359Z" fill="black"/>
<path d="M14.2274 11.7095C13.7745 11.4473 13.3134 11.6105 13.1228 11.8681L12.724 12.3842C12.5214 12.6463 12.1429 12.6115 12.1429 12.6115C9.38004 11.8809 8.6412 8.98975 8.6412 8.98975C8.6412 8.98975 8.60729 8.59833 8.86029 8.38841L9.35895 7.97591C9.60829 7.77791 9.76595 7.30124 9.51204 6.83283C8.8337 5.60724 8.37812 5.18466 8.1462 4.86016C7.90237 4.55491 7.5357 4.48616 7.15437 4.69241H7.14612C6.3532 5.15624 5.48512 6.02433 5.76287 6.91808C6.23679 7.86041 7.10762 10.8643 9.88328 13.134C11.1877 14.2074 13.252 15.3074 14.1284 15.5613L14.1366 15.5742C15.0001 15.862 15.8398 14.96 16.288 14.1432V14.1368C16.4869 13.7417 16.4209 13.3677 16.1304 13.123C15.6152 12.6207 14.8379 12.0661 14.2274 11.7095Z" fill="black"/>
<path d="M12.0715 7.42867C12.9524 7.48001 13.3796 7.94017 13.4254 8.88526C13.4419 9.25467 13.9782 9.22901 13.9617 8.85959C13.903 7.62576 13.2595 6.93826 12.1008 6.87409C11.7479 6.85301 11.7149 7.40759 12.0715 7.42867Z" fill="black"/>
</g>
<defs>
<clipPath id="clip0">
<rect width="22" height="22" fill="white"/>
</clipPath>
</defs>
</svg>
